<?xml version="1.0" standalone="no"?>
<!DOCTYPE svg PUBLIC "-//W3C//DTD SVG 20010904//EN"
 "http://www.w3.org/TR/2001/REC-SVG-20010904/DTD/svg10.dtd">
<svg version="1.0" xmlns="http://www.w3.org/2000/svg"
 width="85.000000pt" height="85.000000pt" viewBox="0 0 85.000000 85.000000"
 preserveAspectRatio="xMidYMid meet">

<g fill="#444444" transform="translate(0.000000,85.000000) scale(0.100000,-0.100000)" stroke="none">
<path d="M330 839 c-81 -15 -184 -41 -221 -56 -31 -12 -35 -17 -31 -42 l4 -29
66 30 c105 47 240 78 351 79 l96 1 -65 13 c-73 16 -134 17 -200 4z"/>
<path d="M414 789 c-81 -9 -181 -44 -270 -94 l-61 -34 -7 -189 c-3 -104 -3
-198 0 -208 23 -61 108 -128 268 -210 l76 -39 103 53 c119 61 192 114 224 161
33 49 28 60 -9 24 -18 -16 -53 -44 -78 -60 -60 -40 -214 -123 -228 -123 -25 0
-10 27 24 43 19 10 40 22 47 28 7 6 30 20 52 33 l40 22 3 127 2 127 -44 0
c-45 0 -56 -10 -56 -52 0 -18 5 -20 45 -16 38 3 45 0 45 -14 0 -16 -10 -18
-70 -18 -68 0 -70 1 -65 23 6 21 3 22 -40 19 -30 -3 -45 -9 -45 -18 0 -18 -42
-28 -88 -21 -54 9 -82 46 -82 108 0 42 5 55 33 86 30 32 41 37 93 41 34 3 63
11 69 19 13 17 85 27 104 15 19 -13 3 -34 -20 -27 -25 8 -56 -2 -63 -21 -6
-16 38 -64 59 -64 7 0 16 15 19 34 6 32 9 34 57 40 l51 7 -4 88 c-3 60 -1 88
6 86 6 -2 34 -11 61 -19 l50 -16 0 -217 c0 -120 -4 -227 -9 -238 -6 -14 2 -10
25 13 l34 32 0 225 0 224 -65 10 c-103 16 -209 20 -286 10z"/>
<path d="M272 535 c-58 -49 -49 -130 16 -149 37 -10 46 -4 56 37 5 20 3 27 -9
27 -8 0 -15 7 -15 15 0 11 11 15 36 15 34 0 35 -1 29 -30 -6 -27 -4 -30 17
-30 27 0 48 17 48 38 0 8 -20 34 -45 58 -54 52 -88 57 -133 19z"/>
<path d="M526 528 c-9 -37 -8 -38 35 -38 38 0 40 1 37 28 -2 22 -9 28 -34 30
-26 3 -33 -1 -38 -20z"/>
</g>
</svg>
